<?xml version="1.0" encoding="UTF-8"?>
<svg width="476px" height="497px" viewBox="0 0 476 497" version="1.1" xmlns="http://www.w3.org/2000/svg" xmlns:xlink="http://www.w3.org/1999/xlink">
    <title>cog-solid</title>
    <g id="Page-1" stroke="none" stroke-width="1" fill="none" fill-rule="evenodd">
        <g id="cog-solid" fill="#FFFFFF" fill-rule="nonzero">
            <path d="M469.4,307.7 L426.8,283.1 C431.1,259.9 431.1,236.1 426.8,212.9 L469.4,188.3 C474.3,185.5 476.5,179.7 474.9,174.3 C463.8,138.7 444.9,106.5 420.2,79.7 C416.4,75.6 410.2,74.6 405.4,77.4 L362.8,102 C344.9,86.6 324.3,74.7 302,66.9 L302,17.8 C302,12.2 298.1,7.3 292.6,6.1 C255.9,-2.1 218.3,-1.7 183.4,6.1 C177.9,7.3 174,12.2 174,17.8 L174,67 C151.8,74.9 131.2,86.8 113.2,102.1 L70.7,77.5 C65.8,74.7 59.7,75.6 55.9,79.8 C31.2,106.5 12.3,138.7 1.2,174.4 C-0.5,179.8 1.8,185.6 6.7,188.4 L49.3,213 C45,236.2 45,260 49.3,283.2 L6.7,307.8 C1.8,310.6 -0.4,316.4 1.2,321.8 C12.3,357.4 31.2,389.6 55.9,416.4 C59.7,420.5 65.9,421.5 70.7,418.7 L113.3,394.1 C131.2,409.5 151.8,421.4 174.1,429.2 L174.1,478.4 C174.1,484 178,488.9 183.5,490.1 C220.2,498.3 257.8,497.9 292.7,490.1 C298.2,488.9 302.1,484 302.1,478.4 L302.1,429.2 C324.3,421.3 344.9,409.4 362.9,394.1 L405.5,418.7 C410.4,421.5 416.5,420.6 420.3,416.4 C445,389.7 463.9,357.5 475,321.8 C476.5,316.3 474.3,310.5 469.4,307.7 Z M238,328 C193.9,328 158,292.1 158,248 C158,203.9 193.9,168 238,168 C282.1,168 318,203.9 318,248 C318,292.1 282.1,328 238,328 Z" id="Shape"></path>
        </g>
    </g>
</svg>