<?xml version="1.0" encoding="UTF-8"?>
<svg width="448px" height="448px" viewBox="0 0 448 448" version="1.1" xmlns="http://www.w3.org/2000/svg" xmlns:xlink="http://www.w3.org/1999/xlink">
    <title>compress-solid</title>
    <g id="Page-1" stroke="none" stroke-width="1" fill="none" fill-rule="evenodd">
        <g id="compress-solid" fill="#FFFFFF" fill-rule="nonzero">
            <path d="M436,160 L312,160 C298.7,160 288,149.3 288,136 L288,12 C288,5.4 293.4,0 300,0 L340,0 C346.6,0 352,5.4 352,12 L352,96 L436,96 C442.6,96 448,101.4 448,108 L448,148 C448,154.6 442.6,160 436,160 Z M160,136 L160,12 C160,5.4 154.6,0 148,0 L108,0 C101.4,0 96,5.4 96,12 L96,96 L12,96 C5.4,96 0,101.4 0,108 L0,148 C0,154.6 5.4,160 12,160 L136,160 C149.3,160 160,149.3 160,136 Z M160,436 L160,312 C160,298.7 149.3,288 136,288 L12,288 C5.4,288 0,293.4 0,300 L0,340 C0,346.6 5.4,352 12,352 L96,352 L96,436 C96,442.6 101.4,448 108,448 L148,448 C154.6,448 160,442.6 160,436 Z M352,436 L352,352 L436,352 C442.6,352 448,346.6 448,340 L448,300 C448,293.4 442.6,288 436,288 L312,288 C298.7,288 288,298.7 288,312 L288,436 C288,442.6 293.4,448 300,448 L340,448 C346.6,448 352,442.6 352,436 Z" id="Shape"></path>
        </g>
    </g>
</svg>