<?xml version="1.0" encoding="UTF-8"?>
<svg width="448px" height="448px" viewBox="0 0 448 448" version="1.1" xmlns="http://www.w3.org/2000/svg" xmlns:xlink="http://www.w3.org/1999/xlink">
    <title>expand-solid</title>
    <g id="Page-1" stroke="none" stroke-width="1" fill="none" fill-rule="evenodd">
        <g id="expand-solid" fill="#FFFFFF" fill-rule="nonzero">
            <path d="M0,148 L0,24 C0,10.7 10.7,0 24,0 L148,0 C154.6,0 160,5.4 160,12 L160,52 C160,58.6 154.6,64 148,64 L64,64 L64,148 C64,154.6 58.6,160 52,160 L12,160 C5.4,160 0,154.6 0,148 Z M288,12 L288,52 C288,58.6 293.4,64 300,64 L384,64 L384,148 C384,154.6 389.4,160 396,160 L436,160 C442.6,160 448,154.6 448,148 L448,24 C448,10.7 437.3,0 424,0 L300,0 C293.4,0 288,5.4 288,12 Z M436,288 L396,288 C389.4,288 384,293.4 384,300 L384,384 L300,384 C293.4,384 288,389.4 288,396 L288,436 C288,442.6 293.4,448 300,448 L424,448 C437.3,448 448,437.3 448,424 L448,300 C448,293.4 442.6,288 436,288 Z M160,436 L160,396 C160,389.4 154.6,384 148,384 L64,384 L64,300 C64,293.4 58.6,288 52,288 L12,288 C5.4,288 0,293.4 0,300 L0,424 C0,437.3 10.7,448 24,448 L148,448 C154.6,448 160,442.6 160,436 Z" id="Shape"></path>
        </g>
    </g>
</svg>