<?xml version="1.0" encoding="UTF-8"?>
<svg width="448px" height="448px" viewBox="0 0 448 448" version="1.1" xmlns="http://www.w3.org/2000/svg" xmlns:xlink="http://www.w3.org/1999/xlink">
    <title>pause-solid</title>
    <g id="Page-1" stroke="none" stroke-width="1" fill="none" fill-rule="evenodd">
        <g id="pause-solid" fill="#FFFFFF" fill-rule="nonzero">
            <path d="M144,448 L48,448 C21.5,448 0,426.5 0,400 L0,48 C0,21.5 21.5,0 48,0 L144,0 C170.5,0 192,21.5 192,48 L192,400 C192,426.5 170.5,448 144,448 Z M448,400 L448,48 C448,21.5 426.5,0 400,0 L304,0 C277.5,0 256,21.5 256,48 L256,400 C256,426.5 277.5,448 304,448 L400,448 C426.5,448 448,426.5 448,400 Z" id="Shape"></path>
        </g>
    </g>
</svg>