<?xml version="1.0" encoding="UTF-8"?>
<svg width="385px" height="384px" viewBox="0 0 385 384" version="1.1" xmlns="http://www.w3.org/2000/svg" xmlns:xlink="http://www.w3.org/1999/xlink">
    <title>volume-down-solid</title>
    <g id="Page-1" stroke="none" stroke-width="1" fill="none" fill-rule="evenodd">
        <g id="volume-down-solid" fill="#FFFFFF" fill-rule="nonzero">
            <path d="M215.03,7.04 L126.06,96 L24,96 C10.74,96 0,106.74 0,120 L0,264 C0,277.25 10.74,288 24,288 L126.06,288 L215.03,376.95 C230.06,391.98 256,381.42 256,359.98 L256,24.02 C256,2.55 230.04,-7.96 215.03,7.04 Z M338.23,115.12 C326.65,108.79 312.04,112.96 305.62,124.57 C299.23,136.18 303.46,150.77 315.07,157.18 C327.98,164.28 336,177.62 336,192 C336,206.38 327.98,219.72 315.08,226.81 C303.47,233.22 299.24,247.81 305.63,259.42 C312.06,271.08 326.68,275.22 338.24,268.87 C366.47,253.32 384.01,223.87 384.01,191.99 C384.01,160.11 366.47,130.67 338.23,115.12 Z" id="Shape"></path>
        </g>
    </g>
</svg>