<?xml version="1.0" encoding="UTF-8"?>
<svg width="480px" height="384px" viewBox="0 0 480 384" version="1.1" xmlns="http://www.w3.org/2000/svg" xmlns:xlink="http://www.w3.org/1999/xlink">
    <title>volume-up-solid</title>
    <g id="Page-1" stroke="none" stroke-width="1" fill="none" fill-rule="evenodd">
        <g id="volume-up-solid" fill="#FFFFFF" fill-rule="nonzero">
            <path d="M215.03,7.05 L126.06,96 L24,96 C10.74,96 0,106.74 0,120 L0,264 C0,277.25 10.74,288 24,288 L126.06,288 L215.03,376.95 C230.06,391.98 256,381.42 256,359.98 L256,24.02 C256,2.56 230.04,-7.96 215.03,7.05 Z M480,192 C480,128.47 447.94,70.06 394.23,35.76 C383.04,28.62 368.2,31.94 361.11,43.22 C354.02,54.5 357.33,69.43 368.52,76.58 C408.27,101.97 432,145.11 432,192 C432,238.89 408.27,282.03 368.52,307.42 C357.33,314.56 354.02,329.49 361.11,340.78 C367.62,351.14 382.23,355.92 394.23,348.24 C447.94,313.94 480,255.54 480,192 Z M338.23,115.13 C326.65,108.8 312.04,112.97 305.62,124.58 C299.23,136.19 303.46,150.78 315.07,157.19 C327.98,164.28 336,177.63 336,192 C336,206.38 327.98,219.72 315.08,226.81 C303.47,233.22 299.24,247.81 305.63,259.42 C312.06,271.08 326.68,275.22 338.24,268.87 C366.47,253.32 384.01,223.87 384.01,191.99 C384.01,160.11 366.47,130.67 338.23,115.13 Z" id="Shape"></path>
        </g>
    </g>
</svg>