<?xml version="1.0" encoding="UTF-8"?>
<svg width="512px" height="384px" viewBox="0 0 512 384" version="1.1" xmlns="http://www.w3.org/2000/svg" xmlns:xlink="http://www.w3.org/1999/xlink">
    <title>volume-mute-solid</title>
    <g id="Page-1" stroke="none" stroke-width="1" fill="none" fill-rule="evenodd">
        <g id="volume-mute-solid" fill="#FFFFFF" fill-rule="nonzero">
            <path d="M215.03,7.05 L126.06,96 L24,96 C10.74,96 0,106.74 0,120 L0,264 C0,277.25 10.74,288 24,288 L126.06,288 L215.03,376.95 C230.06,391.98 256,381.42 256,359.98 L256,24.02 C256,2.56 230.04,-7.96 215.03,7.05 Z M461.64,192 L507.28,146.36 C513.58,140.06 513.58,129.84 507.28,123.54 L484.46,100.72 C478.16,94.42 467.94,94.42 461.64,100.72 L416,146.36 L370.36,100.72 C364.06,94.42 353.84,94.42 347.54,100.72 L324.72,123.54 C318.42,129.84 318.42,140.06 324.72,146.36 L370.36,192 L324.73,237.63 C318.43,243.93 318.43,254.15 324.73,260.45 L347.55,283.27 C353.85,289.57 364.07,289.57 370.37,283.27 L416,237.64 L461.64,283.28 C467.94,289.58 478.16,289.58 484.46,283.28 L507.28,260.46 C513.58,254.16 513.58,243.94 507.28,237.64 L461.64,192 Z" id="Shape"></path>
        </g>
    </g>
</svg>